<?xml version="1.0" encoding="UTF-8" standalone="no"?>
<!-- Created with Inkscape (http://www.inkscape.org/) -->
<svg xmlns:dc="http://purl.org/dc/elements/1.1/" xmlns:cc="http://creativecommons.org/ns#" xmlns:rdf="http://www.w3.org/1999/02/22-rdf-syntax-ns#" xmlns:svg="http://www.w3.org/2000/svg" xmlns="http://www.w3.org/2000/svg" xmlns:xlink="http://www.w3.org/1999/xlink" xmlns:sodipodi="http://sodipodi.sourceforge.net/DTD/sodipodi-0.dtd" xmlns:inkscape="http://www.inkscape.org/namespaces/inkscape" width="62.065182" height="60.775543" id="svg2963" sodipodi:version="0.32" inkscape:version="0.46" version="1.0" sodipodi:docname="tomate.svg" inkscape:output_extension="org.inkscape.output.svg.inkscape">
  <defs id="defs2965">
    <linearGradient inkscape:collect="always" xlink:href="#linearGradient4326" id="linearGradient20604" gradientUnits="userSpaceOnUse" x1="878.30585" y1="638.42285" x2="878.04169" y2="587.67126"/>
    <linearGradient inkscape:collect="always" xlink:href="#linearGradient4326" id="linearGradient20602" gradientUnits="userSpaceOnUse" x1="872.67297" y1="640.58234" x2="874.33466" y2="587.68933"/>
    <linearGradient inkscape:collect="always" xlink:href="#linearGradient4326" id="linearGradient20600" gradientUnits="userSpaceOnUse" x1="870.71393" y1="641.3125" x2="867.66956" y2="585.2215"/>
    <linearGradient inkscape:collect="always" xlink:href="#linearGradient4326" id="linearGradient20598" gradientUnits="userSpaceOnUse" x1="866.38599" y1="629.35236" x2="866.38599" y2="599.3725"/>
    <linearGradient inkscape:collect="always" xlink:href="#linearGradient4326" id="linearGradient20596" gradientUnits="userSpaceOnUse" x1="866.6889" y1="639.06525" x2="864.21893" y2="578.79523"/>
    <linearGradient inkscape:collect="always" xlink:href="#linearGradient4326" id="linearGradient20594" gradientUnits="userSpaceOnUse" x1="857.40021" y1="635.72388" x2="861.86334" y2="572.93176"/>
    <linearGradient inkscape:collect="always" xlink:href="#linearGradient4326" id="linearGradient20592" gradientUnits="userSpaceOnUse" x1="857.40021" y1="641.3125" x2="854.93127" y2="579.96216"/>
    <linearGradient inkscape:collect="always" id="linearGradient4326">
      <stop style="stop-color:#bf7a1b;stop-opacity:1;" offset="0" id="stop4328"/>
      <stop style="stop-color:#bf7a1b;stop-opacity:0;" offset="1" id="stop4330"/>
    </linearGradient>
    <linearGradient inkscape:collect="always" xlink:href="#linearGradient4326" id="linearGradient20590" gradientUnits="userSpaceOnUse" x1="853.86548" y1="642.90381" x2="846.625" y2="590.26312"/>
    <linearGradient inkscape:collect="always" id="linearGradient4248">
      <stop style="stop-color:#e8a000;stop-opacity:1" offset="0" id="stop4250"/>
      <stop style="stop-color:#eeeeec;stop-opacity:0.46564885" offset="1" id="stop4252"/>
    </linearGradient>
    <linearGradient inkscape:collect="always" xlink:href="#linearGradient4248" id="linearGradient20588" gradientUnits="userSpaceOnUse" gradientTransform="matrix(0.962404, 0, 0, 0.945915, 38.2779, 36.72)" x1="856.5553" y1="654.86542" x2="860.37195" y2="571.14648"/>
    <inkscape:perspective sodipodi:type="inkscape:persp3d" inkscape:vp_x="0 : 526.18109 : 1" inkscape:vp_y="0 : 1000 : 0" inkscape:vp_z="744.09448 : 526.18109 : 1" inkscape:persp3d-origin="372.04724 : 350.78739 : 1" id="perspective2971"/>
  </defs>
  <sodipodi:namedview id="base" pagecolor="#ffffff" bordercolor="#666666" borderopacity="1.0" inkscape:pageopacity="0.0" inkscape:pageshadow="2" inkscape:zoom="1.0322785" inkscape:cx="60" inkscape:cy="177.14286" inkscape:document-units="px" inkscape:current-layer="layer1" showgrid="false" inkscape:window-width="640" inkscape:window-height="635" inkscape:window-x="378" inkscape:window-y="57" inkscape:object-paths="false"/>
  <metadata id="metadata2968">
    <rdf:RDF>
      <cc:Work rdf:about="">
        <dc:format>image/svg+xml</dc:format>
        <dc:type rdf:resource="http://purl.org/dc/dcmitype/StillImage"/>
      </cc:Work>
    </rdf:RDF>
  </metadata>
  <g inkscape:label="Capa 1" inkscape:groupmode="layer" id="layer1" transform="translate(-91.3935, -435.936)">
    <g id="g4703" transform="matrix(0.627521, -0.0243587, 0.0143849, 0.655473, -9.73058, 277.634)">
      <path sodipodi:nodetypes="czzzcccccc" id="path4705" d="M 206.81622,249.85214 C 208.05077,253.37267 206.35746,262.17515 207.65883,264.32807 C 209.03955,266.6123 226.60524,263.12212 236.65873,270.19268 C 246.71222,277.26322 258.40781,296.20796 250.58505,312.6902 C 242.7623,329.17242 218.17937,341.7649 204.4717,341.77248 C 179.74365,341.57919 164.94567,334.87408 156.19909,310.38504 C 153.96723,300.98072 153.45132,298.2684 156.04562,288.01676 C 162.44869,267.79425 178.81646,265.14133 197.56066,262.73463 C 205.22288,261.52069 194.98986,250.97005 198.46876,249.54777 C 201.3956,249.27803 206.85596,248.58249 206.81622,249.85214 z" style="fill:#9c151c;fill-opacity:1;fill-rule:evenodd;stroke:none;stroke-width:1px;stroke-linecap:butt;stroke-linejoin:miter;stroke-opacity:1"/>
      <path sodipodi:nodetypes="czzzcccccc" id="path4707" d="M 205.10133,250.99599 C 206.27683,254.34813 204.66451,263.04614 208.11962,265.41266 C 211.2124,267.53101 226.1598,264.26439 235.73242,270.99675 C 245.30504,277.7291 256.44121,295.76769 248.99263,311.46156 C 241.54405,327.15542 218.13695,339.14558 205.08494,339.1528 C 181.53966,338.96875 167.44949,332.58436 159.12127,309.26666 C 156.99616,300.31216 156.50493,297.72958 158.97514,287.96829 C 165.07194,268.71304 180.65682,266.18702 198.50446,263.89543 C 205.80019,262.73956 196.05663,252.69357 199.36913,251.33932 C 202.15597,251.08248 205.13917,249.78707 205.10133,250.99599 z" style="fill:#e10119;fill-opacity:1;fill-rule:evenodd;stroke:none;stroke-width:1px;stroke-linecap:butt;stroke-linejoin:miter;stroke-opacity:1"/>
      <path sodipodi:nodetypes="cscccc" id="path4709" d="M 190.13602,267.60147 C 172.76253,269.78188 160.40693,286.85217 162.52683,305.67866 C 164.64673,324.50515 180.44548,338.01269 197.81896,335.83229 C 198.20636,337.81163 177.16861,320.42121 173.69356,304.48614 C 171.77465,287.44466 177.73883,271.83751 192.53054,267.41818 C 191.74282,267.45321 190.93141,267.50164 190.13602,267.60147 z" style="opacity:0.34732822;fill:#9c151c;fill-opacity:1;fill-rule:nonzero;stroke:none;stroke-width:0;stroke-linecap:round;stroke-miterlimit:4;stroke-dasharray:none;stroke-dashoffset:758.4001215;stroke-opacity:1"/>
      <path id="path4711" d="M 219.37679,271.3697 C 217.14558,271.3697 214.98591,271.64119 212.90804,272.1197 C 220.551,278.24274 225.72054,289.95649 225.72054,303.3697 C 225.72054,311.00603 224.04292,318.05785 221.18929,323.8697 C 235.55423,322.98413 246.93929,311.57793 246.93929,297.65095 C 246.93929,283.14698 234.57975,271.36972 219.37679,271.3697 z" style="opacity:0.34732822;fill:#fcaf3e;fill-opacity:1;fill-rule:nonzero;stroke:none;stroke-width:0;stroke-linecap:round;stroke-miterlimit:4;stroke-dasharray:none;stroke-dashoffset:758.4001215;stroke-opacity:1"/>
      <path sodipodi:nodetypes="czzzzzzzzzzzzzzzzcc" id="path4713" d="M 199.97728,251.47791 C 199.80191,252.79323 201.31847,258.44932 201.55566,260.68513 C 201.79285,262.92094 202.39374,263.78586 200.03099,264.18351 C 197.66824,264.58116 195.80654,264.97743 193.67224,264.97688 C 191.53794,264.97633 189.50911,264.6525 188.37146,266.2641 C 187.23381,267.8757 185.97509,269.15886 185.05561,270.70401 C 184.13614,272.24915 186.45258,271.24707 188.16396,271.11586 C 189.87535,270.98465 194.4132,268.21095 195.50521,269.89231 C 196.59721,271.57367 193.4007,280.80941 194.71602,281.20401 C 196.03133,281.5986 200.67879,272.34758 203.3971,272.25989 C 206.11541,272.1722 209.57906,280.54636 211.02591,280.67789 C 212.47276,280.80942 211.02593,273.31214 212.07817,273.04908 C 213.13042,272.78602 216.55023,279.18721 217.33942,279.09952 C 218.12861,279.01183 216.59902,273.0955 216.8133,272.52295 C 217.02758,271.9504 220.18071,273.60563 218.70268,272.05527 C 217.22465,270.50491 217.47536,268.21343 214.70058,267.56586 C 211.9258,266.91829 207.72836,266.75685 205.93214,264.20706 C 204.13591,261.65727 205.20777,253.91684 204.46242,251.59312 C 203.71707,251.1566 200.55704,251.1062 199.97728,251.47791 z" style="fill:#639f1b;fill-opacity:1;fill-rule:evenodd;stroke:none;stroke-width:1px;stroke-linecap:butt;stroke-linejoin:miter;stroke-opacity:1"/>
      <path sodipodi:nodetypes="czzz" id="path4715" d="M 199.43912,266.31873 C 201.62531,267.60801 196.95933,261.83398 190.57517,266.31873 C 184.11785,270.85487 187.2483,272.61514 187.72604,270.43417 C 188.13787,268.55411 197.38142,265.10522 199.43912,266.31873 z" style="opacity:0.50763358;fill:#8ae234;fill-rule:evenodd;stroke:none;stroke-width:1px;stroke-linecap:butt;stroke-linejoin:miter;stroke-opacity:1"/>
      <path inkscape:transform-center-x="2.7792641" sodipodi:nodetypes="ccc" id="path4718" d="M 204.52173,267.40976 C 202.36905,268.75427 206.86105,264.48637 213.35728,268.8072 C 222.33361,277.81787 207.44949,266.82218 204.52173,267.40976 z" style="opacity:0.50763358;fill:#8ae234;fill-rule:evenodd;stroke:none;stroke-width:1px;stroke-linecap:butt;stroke-linejoin:miter;stroke-opacity:1" inkscape:transform-center-y="-2.5042821"/>
      <path id="path4720" d="M 201.02198,266.00217 L 197.53971,270.11759 L 196.27343,278.34841 L 201.02198,266.00217 z" style="fill:#77c127;fill-opacity:1;fill-rule:evenodd;stroke:none;stroke-width:1px;stroke-linecap:butt;stroke-linejoin:miter;stroke-opacity:1"/>
      <path inkscape:transform-center-y="2.5325604" style="fill:#77c127;fill-opacity:1;fill-rule:evenodd;stroke:none;stroke-width:1px;stroke-linecap:butt;stroke-linejoin:miter;stroke-opacity:1" d="M 202.05717,266.73979 L 206.65317,269.55753 L 210.4336,276.97765 L 202.05717,266.73979 z" id="path4722"/>
    </g>
  </g>
</svg>